Patient4_TMGait_0pt5_02_left_27_GRF.mot
version=1
nRows=71
nColumns=19
inDegrees=no
endheader
time	F1x	F1y	F1z	M1x	M1y	M1z	F2x	F2y	F2z	M2x	M2y	M2z	EC1x	EC1y	EC1z	EC2x	EC2y	EC2z
34.47	-12.7228	-2.572	-0.36322	-1.282	-0.59525	-0.84154	-33.7087	717.9353	-61.5248	282.0573	65.4809	630.1413	-0.0592	0.0182	-0.0073	-0.0462	0.0165	0.9585
34.4834	-8.6451	-1.38	-0.16399	-1.0311	-0.55352	-0.10728	-30.414	720.1394	-57.5834	282.6849	60.7944	627.8472	-0.0592	0.0182	-0.0073	-0.0462	0.0165	0.9585
34.4967	-5.1982	-0.33879	0.00089254	-0.82639	-0.50258	0.51543	-27.1449	724.942	-53.8293	284.4458	56.2323	627.3725	-0.0592	0.0182	-0.0073	-0.0462	0.0165	0.9585
34.5101	-2.5712	0.48241	0.12928	-0.67691	-0.45288	0.99363	-24.0276	732.5131	-50.5501	287.4273	52.0875	629.0159	-0.0592	0.0182	-0.0073	-0.0462	0.0165	0.9585
34.5234	-0.76935	1.0892	0.20664	-0.58416	-0.40124	1.3578	-21.0969	742.4734	-47.902	291.4641	48.5074	632.5671	-0.0592	0.0182	-0.0073	-0.0462	0.0165	0.9585
34.5368	0.32678	1.5067	0.25005	-0.53685	-0.36394	1.6248	-18.3395	753.9789	-45.9382	296.184	45.5331	637.3965	-0.0592	0.0182	-0.0073	-0.0462	0.0165	0.9585
34.5501	0.876	1.7752	0.25848	-0.52069	-0.3392	1.8102	-15.7186	765.9311	-44.6394	301.1	43.1345	642.6409	-0.0592	0.0182	-0.0073	-0.0462	0.0165	0.9585
34.5635	1.0303	1.9266	0.24644	-0.51721	-0.33995	1.9265	-13.1999	777.1713	-43.9391	305.6977	41.2395	647.3857	-0.0592	0.0182	-0.0073	-0.0462	0.0165	0.9585
34.5769	0.94349	1.9673	0.22035	-0.50582	-0.36015	1.9523	-10.754	786.5607	-43.7555	309.4765	39.77	650.7355	-0.0592	0.0182	-0.0073	-0.0462	0.0165	0.9585
34.5902	0.70748	1.8971	0.19803	-0.469	-0.40784	1.8864	-8.3685	793.0694	-44.0059	311.9882	38.6585	651.8952	-0.0592	0.0182	-0.0073	-0.0462	0.0165	0.9585
34.6036	0.40599	1.6756	0.18746	-0.3846	-0.47599	1.6647	-6.0218	795.9113	-44.588	312.9023	37.8213	650.269	-0.0592	0.0182	-0.0073	-0.0462	0.0165	0.9585
34.6169	0.075093	1.2551	0.20011	-0.23171	-0.5695	1.2414	-3.6997	794.689	-45.3821	312.0623	37.1658	645.5723	-0.0592	0.0182	-0.0073	-0.0462	0.0165	0.9585
34.6303	-0.23894	0.57165	0.23305	0.012794	-0.67575	0.55844	-1.3899	789.457	-46.2654	309.5092	36.597	637.8651	-0.0592	0.0182	-0.0073	-0.0462	0.0165	0.9585
34.6436	-0.47858	-0.42634	0.28411	0.36791	-0.77624	-0.43098	0.91736	780.7135	-47.1373	305.4702	36.0352	627.5481	-0.0592	0.0182	-0.0073	-0.0462	0.0165	0.9585
34.657	-0.59125	-1.7303	0.33629	0.8341	-0.8341	-1.7145	3.2339	769.321	-47.9546	300.3187	35.441	615.2975	-0.0592	0.0182	-0.0073	-0.0462	0.0165	0.9585
34.6704	-0.48221	-3.2636	0.36845	1.3823	-0.79468	-3.2343	5.5766	756.4264	-48.7254	294.5416	34.8101	601.988	-0.0592	0.0182	-0.0073	-0.0462	0.0165	0.9585
34.6837	-0.061143	-4.8171	0.33907	1.9347	-0.58421	-4.7768	7.9546	743.3497	-49.5007	288.6896	34.1751	588.6207	-0.0592	0.0182	-0.0073	-0.0462	0.0165	0.9585
34.6971	0.80455	-6.0166	0.19551	2.35	-0.10455	-5.9835	10.3945	731.3949	-50.3603	283.3027	33.5845	576.1688	-0.0592	0.0182	-0.0073	-0.0462	0.0165	0.9585
34.7104	2.2336	-6.2433	-0.12957	2.3978	0.75754	-6.2504	12.9144	721.6691	-51.3781	278.8342	33.0816	565.4503	-0.0592	0.0182	-0.0073	-0.0462	0.0165	0.9585
34.7238	4.3215	-4.6106	-0.70583	1.7477	2.1107	-4.7063	15.5438	714.8892	-52.6114	275.5761	32.6936	556.9717	-0.0592	0.0182	-0.0073	-0.0462	0.0165	0.9585
34.7371	7.096	0.039597	-1.5946	-0.030638	4.0273	-0.20228	18.3007	711.2631	-54.0794	273.6139	32.4252	550.8626	-0.0592	0.0182	-0.0073	-0.0462	0.0165	0.9585
34.7505	10.4007	9.0788	-2.8224	-3.4419	6.4777	8.6478	21.1673	710.433	-55.7415	272.805	32.2536	546.8516	-0.0592	0.0182	-0.0073	-0.0462	0.0165	0.9585
34.7639	13.8307	23.8912	-4.3443	-8.9933	9.2614	23.2357	24.0892	711.4789	-57.4716	272.786	32.1117	544.2758	-0.0592	0.0182	-0.0073	-0.0462	0.0165	0.9585
34.7772	16.5734	45.5432	-5.9998	-17.0679	11.9088	44.6663	26.9564	712.9924	-59.063	273.0048	31.9018	542.1503	-0.0592	0.0182	-0.0073	-0.0462	0.0165	0.9585
34.7906	17.3552	74.2661	-7.4542	-27.7358	13.607	73.2392	29.6323	713.1846	-60.2446	272.7681	31.4943	539.2186	-0.0592	0.0182	-0.0073	-0.0462	0.0165	0.9585
34.8039	14.9282	109.3499	-8.2159	-40.7115	13.4106	108.3613	31.983	710.1101	-60.7471	271.3289	30.7605	534.1085	-0.0592	0.0182	-0.0073	-0.0462	0.0165	0.9585
34.8173	9.4625	149.8634	-7.872	-55.6111	10.9611	149.1694	33.9296	701.9961	-60.3305	268.0144	29.5691	525.558	-0.0592	0.0182	-0.0073	-0.0462	0.0165	0.9585
34.8306	2.1354	194.1747	-5.9769	-71.7787	6.2382	193.9702	35.4413	687.4643	-58.8383	262.3063	27.8265	512.583	-0.0592	0.0182	-0.0073	-0.0462	0.0165	0.9585
34.844	-5.9047	238.8567	-2.088	-87.9285	-0.76034	239.138	36.4981	665.5653	-56.2078	253.8532	25.5058	494.5007	-0.0592	0.0182	-0.0073	-0.0462	0.0165	0.9585
34.8574	-13.4066	279.6966	3.4395	-102.5577	-9.1704	280.2142	37.0648	635.9423	-52.4766	242.5254	22.656	471.0573	-0.0592	0.0182	-0.0073	-0.0462	0.0165	0.9585
34.8707	-19.4571	313.9945	9.7964	-114.7447	-17.798	314.3255	37.1145	599.0156	-47.8214	228.4789	19.4145	442.5543	-0.0592	0.0182	-0.0073	-0.0462	0.0165	0.9585
34.8841	-23.9553	341.9607	16.1025	-124.6336	-25.7016	341.593	36.6668	556.0172	-42.557	212.1678	15.9877	409.8764	-0.0592	0.0182	-0.0073	-0.0462	0.0165	0.9585
34.8974	-27.1182	365.8661	21.663	-133.1086	-32.2726	364.2566	35.784	508.7093	-37.0719	194.2405	12.6051	374.2907	-0.0592	0.0182	-0.0073	-0.0462	0.0165	0.9585
34.9108	-29.2593	388.5467	25.9645	-141.2454	-37.1347	385.1584	34.5156	458.9714	-31.7042	175.3904	9.4601	337.1518	-0.0592	0.0182	-0.0073	-0.0462	0.0165	0.9585
34.9241	-30.6152	412.4505	28.8484	-149.9479	-40.2407	406.7447	32.8603	408.4675	-26.6922	156.2333	6.6988	299.6556	-0.0592	0.0182	-0.0073	-0.0462	0.0165	0.9585
34.9375	-31.3322	439.1983	30.4538	-159.7857	-41.8062	430.6116	30.7615	358.4729	-22.1654	137.2393	4.4158	262.72	-0.0592	0.0182	-0.0073	-0.0462	0.0165	0.9585
34.9509	-31.5735	469.4246	31.3209	-170.933	-42.433	457.4184	28.1243	309.8109	-18.1946	118.713	2.6921	226.9286	-0.0592	0.0182	-0.0073	-0.0462	0.0165	0.9585
34.9642	-31.5067	502.9122	32.1241	-183.2408	-42.8474	486.978	24.8527	263.0326	-14.7955	100.8612	1.5779	192.6577	-0.0592	0.0182	-0.0073	-0.0462	0.0165	0.9585
34.9776	-31.3744	539.0197	33.5435	-196.4	-43.7949	518.7216	20.9446	218.6675	-11.9617	83.8881	1.0769	160.257	-0.0592	0.0182	-0.0073	-0.0462	0.0165	0.9585
34.9909	-31.3722	577.0007	35.9536	-210.0832	-45.7113	551.9607	16.5551	177.3842	-9.6533	68.0585	1.1071	130.1692	-0.0592	0.0182	-0.0073	-0.0462	0.0165	0.9585
35.0043	-31.6319	616.0902	39.4383	-223.982	-48.7314	586.0138	12.0055	139.933	-7.8027	53.6726	1.5033	102.9025	-0.0592	0.0182	-0.0073	-0.0462	0.0165	0.9585
35.0176	-32.1652	655.3937	43.6746	-237.7806	-52.558	620.055	7.7068	106.9365	-6.3041	40.9854	2.0349	78.8667	-0.0592	0.0182	-0.0073	-0.0462	0.0165	0.9585
35.031	-32.8837	693.7313	48.182	-251.084	-56.7118	652.9882	3.9916	78.7439	-5.0488	30.1446	2.4999	58.295	-0.0592	0.0182	-0.0073	-0.0462	0.0165	0.9585
35.0444	-33.6426	729.5918	52.4314	-263.3912	-60.6438	683.413	1.0615	55.4008	-3.9415	21.1779	2.7595	41.223	-0.0592	0.0182	-0.0073	-0.0462	0.0165	0.9585
35.0577	-34.2331	761.2898	56.1074	-274.133	-63.9819	709.7673	-1.017	36.7292	-2.9429	14.0193	2.7705	27.5342	-0.0592	0.0182	-0.0073	-0.0462	0.0165	0.9585
35.0711	-34.4831	787.2353	59.0343	-282.7683	-66.4887	730.605	-2.2726	22.4165	-2.0524	8.5457	2.5481	17.0184	-0.0592	0.0182	-0.0073	-0.0462	0.0165	0.9585
35.0844	-34.2538	806.1808	61.1947	-288.8763	-68.0935	744.8204	-2.7804	12.0442	-1.3096	4.592	2.1581	9.3767	-0.0592	0.0182	-0.0073	-0.0462	0.0165	0.9585
35.0978	-33.4607	817.4817	62.5641	-292.2512	-68.7437	751.889	-2.7201	5.1141	-0.74071	1.9603	1.6913	4.2571	-0.0592	0.0182	-0.0073	-0.0462	0.0165	0.9585
35.1111	-32.0627	821.204	63.1602	-292.9375	-68.4468	751.9517	-2.3476	0.99804	-0.34522	0.40493	1.245	1.205	-0.0592	0.0182	-0.0073	-0.0462	0.0165	0.9585
35.1245	-30.063	818.0994	62.9993	-291.2189	-67.2255	745.7637	-1.8569	-1.0268	-0.096283	-0.3547	0.87093	-0.29985	-0.0592	0.0182	-0.0073	-0.0462	0.0165	0.9585
35.1379	-27.5344	809.476	62.2015	-287.5627	-65.2217	734.5898	-1.3741	-1.6401	0.042455	-0.58061	0.58407	-0.74844	-0.0592	0.0182	-0.0073	-0.0462	0.0165	0.9585
35.1512	-24.6019	796.951	60.9427	-282.5352	-62.6427	719.9572	-0.95657	-1.4062	0.10339	-0.48687	0.37978	-0.56335	-0.0592	0.0182	-0.0073	-0.0462	0.0165	0.9585
35.1646	-21.4571	782.2548	59.467	-276.7371	-59.7778	703.4802	-0.63564	-0.73599	0.11557	-0.22924	0.24604	-0.04514	-0.0592	0.0182	-0.0073	-0.0462	0.0165	0.9585
35.1779	-18.2935	767.0931	57.9839	-270.7655	-56.888	686.7036	-0.40895	0.08547	0.097776	0.085297	0.16832	0.59103	-0.0592	0.0182	-0.0073	-0.0462	0.0165	0.9585
35.1913	-15.2763	753.0324	56.668	-265.1753	-54.192	671.0049	-0.26815	0.88859	0.070697	0.39164	0.12429	1.2192	-0.0592	0.0182	-0.0073	-0.0462	0.0165	0.9585
35.2046	-12.506	741.3557	55.6177	-260.4305	-51.8166	657.4625	-0.19484	1.588	0.041404	0.65727	0.10462	1.7739	-0.0592	0.0182	-0.0073	-0.0462	0.0165	0.9585
35.218	-10.022	732.929	54.8907	-256.8555	-49.8258	646.7521	-0.16873	2.1575	0.017067	0.87231	0.099491	2.2314	-0.0592	0.0182	-0.0073	-0.0462	0.0165	0.9585
35.2314	-7.7942	728.1486	54.4864	-254.6142	-48.2056	639.117	-0.18162	2.6047	-0.0018516	1.039	0.10789	2.6008	-0.0592	0.0182	-0.0073	-0.0462	0.0165	0.9585
35.2447	-5.7368	726.958	54.3565	-253.7117	-46.8811	634.3984	-0.22265	2.9295	-0.011533	1.1593	0.12322	2.8741	-0.0592	0.0182	-0.0073	-0.0462	0.0165	0.9585
35.2581	-3.7403	728.9292	54.4246	-254.0173	-45.7485	632.1427	-0.29082	3.1325	-0.021484	1.2346	0.15407	3.0553	-0.0592	0.0182	-0.0073	-0.0462	0.0165	0.9585
35.2714	-1.6824	733.3609	54.5996	-255.2964	-44.6884	631.6875	-0.37735	3.195	-0.032626	1.2585	0.20002	3.1191	-0.0592	0.0182	-0.0073	-0.0462	0.0165	0.9585
35.2848	0.5261	739.4079	54.8095	-257.2508	-43.6089	632.2793	-0.48248	3.0762	-0.052306	1.2138	0.26554	3.019	-0.0592	0.0182	-0.0073	-0.0462	0.0165	0.9585
35.2981	2.9588	746.1719	54.9857	-259.5561	-42.4271	633.1466	-0.60045	2.7137	-0.083775	1.0737	0.34864	2.6846	-0.0592	0.0182	-0.0073	-0.0462	0.0165	0.9585
35.3115	5.6541	752.789	55.091	-261.8911	-41.1005	633.5899	-0.7242	2.026	-0.13247	0.80257	0.44623	2.0207	-0.0592	0.0182	-0.0073	-0.0462	0.0165	0.9585
35.3249	8.6374	758.5071	55.0849	-263.9706	-39.5875	633.0268	-0.84218	0.92297	-0.19353	0.36201	0.54524	0.92875	-0.0592	0.0182	-0.0073	-0.0462	0.0165	0.9585
35.3382	11.9056	762.7511	54.9552	-265.5691	-37.8758	631.0541	-0.91676	-0.67525	-0.26046	-0.28103	0.62789	-0.66796	-0.0592	0.0182	-0.0073	-0.0462	0.0165	0.9585
35.3516	15.4217	765.1573	54.6944	-266.5388	-35.9651	627.4801	-0.90201	-2.7893	-0.31294	-1.1359	0.65895	-2.7771	-0.0592	0.0182	-0.0073	-0.0462	0.0165	0.9585
35.3649	19.1424	765.5403	54.3406	-266.7974	-33.9012	622.2741	-0.72138	-5.3268	-0.3362	-2.1641	0.5942	-5.3056	-0.0592	0.0182	-0.0073	-0.0462	0.0165	0.9585
35.3783	23.0102	763.839	53.944	-266.3046	-31.7474	615.5145	-0.28656	-7.9964	-0.29681	-3.2473	0.36661	-7.9652	-0.0592	0.0182	-0.0073	-0.0462	0.0165	0.9585
35.3916	26.9593	760.0445	53.5899	-265.037	-29.6051	607.3003	0.50541	-10.2264	-0.16383	-4.1517	-0.095749	-10.1948	-0.0592	0.0182	-0.0073	-0.0462	0.0165	0.9585
35.405	30.917	754.2368	53.3515	-263.0053	-27.5663	597.7867	1.7586	-11.0707	0.10762	-4.488	-0.87836	-11.067	-0.0592	0.0182	-0.0073	-0.0462	0.0165	0.9585
